<mxfile host="app.diagrams.net" agent="Mozilla/5.0 (Windows NT 10.0; Win64; x64) AppleWebKit/537.36 (KHTML, like Gecko) Chrome/129.0.0.0 Safari/537.36" version="24.7.16">
  <diagram name="Halaman-1" id="taF5a8NB6DzlvMdAfavf">
    <mxGraphModel dx="1750" dy="1005" grid="1" gridSize="10" guides="1" tooltips="1" connect="1" arrows="1" fold="1" page="1" pageScale="1" pageWidth="827" pageHeight="1169" math="0" shadow="0">
      <root>
        <mxCell id="0" />
        <mxCell id="1" parent="0" />
        <mxCell id="cojn__nknI8n7a3oZvmY-5" value="" style="edgeStyle=orthogonalEdgeStyle;rounded=0;orthogonalLoop=1;jettySize=auto;html=1;strokeWidth=2;" edge="1" parent="1" source="cojn__nknI8n7a3oZvmY-1" target="cojn__nknI8n7a3oZvmY-2">
          <mxGeometry relative="1" as="geometry" />
        </mxCell>
        <mxCell id="cojn__nknI8n7a3oZvmY-1" value="Start" style="strokeWidth=2;html=1;shape=mxgraph.flowchart.terminator;whiteSpace=wrap;" vertex="1" parent="1">
          <mxGeometry x="340" y="40" width="100" height="60" as="geometry" />
        </mxCell>
        <mxCell id="cojn__nknI8n7a3oZvmY-6" value="" style="edgeStyle=orthogonalEdgeStyle;rounded=0;orthogonalLoop=1;jettySize=auto;html=1;strokeWidth=2;" edge="1" parent="1" source="cojn__nknI8n7a3oZvmY-2" target="cojn__nknI8n7a3oZvmY-3">
          <mxGeometry relative="1" as="geometry" />
        </mxCell>
        <mxCell id="cojn__nknI8n7a3oZvmY-2" value="Input Harga" style="shape=parallelogram;perimeter=parallelogramPerimeter;whiteSpace=wrap;html=1;fixedSize=1;" vertex="1" parent="1">
          <mxGeometry x="330" y="150" width="120" height="60" as="geometry" />
        </mxCell>
        <mxCell id="cojn__nknI8n7a3oZvmY-7" value="" style="edgeStyle=orthogonalEdgeStyle;rounded=0;orthogonalLoop=1;jettySize=auto;html=1;strokeWidth=2;" edge="1" parent="1" source="cojn__nknI8n7a3oZvmY-3" target="cojn__nknI8n7a3oZvmY-4">
          <mxGeometry relative="1" as="geometry" />
        </mxCell>
        <mxCell id="cojn__nknI8n7a3oZvmY-3" value="Input Kode Voucher" style="shape=parallelogram;perimeter=parallelogramPerimeter;whiteSpace=wrap;html=1;fixedSize=1;" vertex="1" parent="1">
          <mxGeometry x="325" y="250" width="130" height="70" as="geometry" />
        </mxCell>
        <mxCell id="cojn__nknI8n7a3oZvmY-9" value="" style="edgeStyle=orthogonalEdgeStyle;rounded=0;orthogonalLoop=1;jettySize=auto;html=1;strokeWidth=2;" edge="1" parent="1" source="cojn__nknI8n7a3oZvmY-4" target="cojn__nknI8n7a3oZvmY-8">
          <mxGeometry relative="1" as="geometry" />
        </mxCell>
        <mxCell id="cojn__nknI8n7a3oZvmY-4" value="Memanggil Fungsi hitung_diskon" style="rounded=1;whiteSpace=wrap;html=1;" vertex="1" parent="1">
          <mxGeometry x="330" y="360" width="120" height="60" as="geometry" />
        </mxCell>
        <mxCell id="cojn__nknI8n7a3oZvmY-13" value="" style="edgeStyle=orthogonalEdgeStyle;rounded=0;orthogonalLoop=1;jettySize=auto;html=1;strokeWidth=2;" edge="1" parent="1" source="cojn__nknI8n7a3oZvmY-8" target="cojn__nknI8n7a3oZvmY-11">
          <mxGeometry relative="1" as="geometry" />
        </mxCell>
        <mxCell id="cojn__nknI8n7a3oZvmY-20" value="" style="edgeStyle=orthogonalEdgeStyle;rounded=0;orthogonalLoop=1;jettySize=auto;html=1;strokeWidth=2;" edge="1" parent="1" source="cojn__nknI8n7a3oZvmY-8" target="cojn__nknI8n7a3oZvmY-18">
          <mxGeometry relative="1" as="geometry" />
        </mxCell>
        <mxCell id="cojn__nknI8n7a3oZvmY-8" value="harga &amp;gt; 150.000 dan kode_voucher == diskon10?" style="rhombus;whiteSpace=wrap;html=1;" vertex="1" parent="1">
          <mxGeometry x="320" y="460" width="140" height="140" as="geometry" />
        </mxCell>
        <mxCell id="cojn__nknI8n7a3oZvmY-14" value="" style="edgeStyle=orthogonalEdgeStyle;rounded=0;orthogonalLoop=1;jettySize=auto;html=1;strokeWidth=2;" edge="1" parent="1" source="cojn__nknI8n7a3oZvmY-11" target="cojn__nknI8n7a3oZvmY-12">
          <mxGeometry relative="1" as="geometry" />
        </mxCell>
        <mxCell id="cojn__nknI8n7a3oZvmY-26" value="" style="edgeStyle=orthogonalEdgeStyle;rounded=0;orthogonalLoop=1;jettySize=auto;html=1;" edge="1" parent="1" source="cojn__nknI8n7a3oZvmY-11" target="cojn__nknI8n7a3oZvmY-21">
          <mxGeometry relative="1" as="geometry" />
        </mxCell>
        <mxCell id="cojn__nknI8n7a3oZvmY-11" value="harga &amp;gt; 300.000 dan kode_voucher == diskon15?" style="rhombus;whiteSpace=wrap;html=1;" vertex="1" parent="1">
          <mxGeometry x="320" y="640" width="140" height="140" as="geometry" />
        </mxCell>
        <mxCell id="cojn__nknI8n7a3oZvmY-24" value="" style="edgeStyle=orthogonalEdgeStyle;rounded=0;orthogonalLoop=1;jettySize=auto;html=1;strokeWidth=2;" edge="1" parent="1" source="cojn__nknI8n7a3oZvmY-12" target="cojn__nknI8n7a3oZvmY-22">
          <mxGeometry relative="1" as="geometry" />
        </mxCell>
        <mxCell id="cojn__nknI8n7a3oZvmY-36" value="" style="edgeStyle=orthogonalEdgeStyle;rounded=0;orthogonalLoop=1;jettySize=auto;html=1;strokeWidth=2;" edge="1" parent="1" source="cojn__nknI8n7a3oZvmY-12" target="cojn__nknI8n7a3oZvmY-35">
          <mxGeometry relative="1" as="geometry" />
        </mxCell>
        <mxCell id="cojn__nknI8n7a3oZvmY-12" value="harga &amp;gt; 500.000 dan kode_voucher == diskon20?" style="rhombus;whiteSpace=wrap;html=1;" vertex="1" parent="1">
          <mxGeometry x="320" y="810" width="140" height="140" as="geometry" />
        </mxCell>
        <mxCell id="cojn__nknI8n7a3oZvmY-15" value="False" style="text;html=1;align=center;verticalAlign=middle;resizable=0;points=[];autosize=1;strokeColor=none;fillColor=none;" vertex="1" parent="1">
          <mxGeometry x="345" y="608" width="50" height="30" as="geometry" />
        </mxCell>
        <mxCell id="cojn__nknI8n7a3oZvmY-16" value="False" style="text;html=1;align=center;verticalAlign=middle;resizable=0;points=[];autosize=1;strokeColor=none;fillColor=none;" vertex="1" parent="1">
          <mxGeometry x="340" y="780" width="50" height="30" as="geometry" />
        </mxCell>
        <mxCell id="cojn__nknI8n7a3oZvmY-17" value="False" style="text;html=1;align=center;verticalAlign=middle;resizable=0;points=[];autosize=1;strokeColor=none;fillColor=none;" vertex="1" parent="1">
          <mxGeometry x="340" y="960" width="50" height="30" as="geometry" />
        </mxCell>
        <mxCell id="cojn__nknI8n7a3oZvmY-18" value="Hitung Diskon 10% = 0.10 * harga" style="whiteSpace=wrap;html=1;aspect=fixed;" vertex="1" parent="1">
          <mxGeometry x="530" y="485" width="90" height="90" as="geometry" />
        </mxCell>
        <mxCell id="cojn__nknI8n7a3oZvmY-33" value="" style="edgeStyle=orthogonalEdgeStyle;rounded=0;orthogonalLoop=1;jettySize=auto;html=1;strokeWidth=2;" edge="1" parent="1" source="cojn__nknI8n7a3oZvmY-21" target="cojn__nknI8n7a3oZvmY-29">
          <mxGeometry relative="1" as="geometry" />
        </mxCell>
        <mxCell id="cojn__nknI8n7a3oZvmY-21" value="Hitung Diskon 15% = 0.15 * harga" style="whiteSpace=wrap;html=1;aspect=fixed;" vertex="1" parent="1">
          <mxGeometry x="520" y="665" width="90" height="90" as="geometry" />
        </mxCell>
        <mxCell id="cojn__nknI8n7a3oZvmY-30" value="" style="edgeStyle=orthogonalEdgeStyle;rounded=0;orthogonalLoop=1;jettySize=auto;html=1;strokeWidth=2;" edge="1" parent="1" source="cojn__nknI8n7a3oZvmY-22" target="cojn__nknI8n7a3oZvmY-29">
          <mxGeometry relative="1" as="geometry" />
        </mxCell>
        <mxCell id="cojn__nknI8n7a3oZvmY-22" value="Hitung Diskon 20% = 0.20 * harga" style="whiteSpace=wrap;html=1;aspect=fixed;" vertex="1" parent="1">
          <mxGeometry x="520" y="835" width="90" height="90" as="geometry" />
        </mxCell>
        <mxCell id="cojn__nknI8n7a3oZvmY-25" value="True" style="text;html=1;align=center;verticalAlign=middle;resizable=0;points=[];autosize=1;strokeColor=none;fillColor=none;" vertex="1" parent="1">
          <mxGeometry x="455" y="858" width="50" height="30" as="geometry" />
        </mxCell>
        <mxCell id="cojn__nknI8n7a3oZvmY-27" value="True" style="text;html=1;align=center;verticalAlign=middle;resizable=0;points=[];autosize=1;strokeColor=none;fillColor=none;" vertex="1" parent="1">
          <mxGeometry x="455" y="688" width="50" height="30" as="geometry" />
        </mxCell>
        <mxCell id="cojn__nknI8n7a3oZvmY-28" value="True" style="text;html=1;align=center;verticalAlign=middle;resizable=0;points=[];autosize=1;strokeColor=none;fillColor=none;" vertex="1" parent="1">
          <mxGeometry x="455" y="508" width="50" height="30" as="geometry" />
        </mxCell>
        <mxCell id="cojn__nknI8n7a3oZvmY-29" value="Batasi Maks Diskon" style="rounded=0;whiteSpace=wrap;html=1;" vertex="1" parent="1">
          <mxGeometry x="690" y="680" width="120" height="60" as="geometry" />
        </mxCell>
        <mxCell id="cojn__nknI8n7a3oZvmY-34" style="edgeStyle=orthogonalEdgeStyle;rounded=0;orthogonalLoop=1;jettySize=auto;html=1;entryX=0.613;entryY=-0.048;entryDx=0;entryDy=0;entryPerimeter=0;strokeWidth=2;" edge="1" parent="1" source="cojn__nknI8n7a3oZvmY-18" target="cojn__nknI8n7a3oZvmY-29">
          <mxGeometry relative="1" as="geometry">
            <Array as="points">
              <mxPoint x="750" y="530" />
              <mxPoint x="750" y="677" />
            </Array>
          </mxGeometry>
        </mxCell>
        <mxCell id="cojn__nknI8n7a3oZvmY-38" value="" style="edgeStyle=orthogonalEdgeStyle;rounded=0;orthogonalLoop=1;jettySize=auto;html=1;strokeWidth=2;" edge="1" parent="1" source="cojn__nknI8n7a3oZvmY-35" target="cojn__nknI8n7a3oZvmY-37">
          <mxGeometry relative="1" as="geometry" />
        </mxCell>
        <mxCell id="cojn__nknI8n7a3oZvmY-35" value="Tidak Ada Diskon" style="rounded=0;whiteSpace=wrap;html=1;" vertex="1" parent="1">
          <mxGeometry x="330" y="1000" width="120" height="60" as="geometry" />
        </mxCell>
        <mxCell id="cojn__nknI8n7a3oZvmY-42" value="" style="edgeStyle=orthogonalEdgeStyle;rounded=0;orthogonalLoop=1;jettySize=auto;html=1;strokeWidth=2;" edge="1" parent="1" source="cojn__nknI8n7a3oZvmY-37" target="cojn__nknI8n7a3oZvmY-41">
          <mxGeometry relative="1" as="geometry" />
        </mxCell>
        <mxCell id="cojn__nknI8n7a3oZvmY-37" value="Hitung Harga Akhir" style="whiteSpace=wrap;html=1;aspect=fixed;" vertex="1" parent="1">
          <mxGeometry x="350" y="1120" width="80" height="80" as="geometry" />
        </mxCell>
        <mxCell id="cojn__nknI8n7a3oZvmY-40" style="edgeStyle=orthogonalEdgeStyle;rounded=0;orthogonalLoop=1;jettySize=auto;html=1;entryX=1.03;entryY=0.627;entryDx=0;entryDy=0;entryPerimeter=0;strokeWidth=2;" edge="1" parent="1" source="cojn__nknI8n7a3oZvmY-29" target="cojn__nknI8n7a3oZvmY-37">
          <mxGeometry relative="1" as="geometry">
            <Array as="points">
              <mxPoint x="820" y="710" />
              <mxPoint x="820" y="1170" />
            </Array>
          </mxGeometry>
        </mxCell>
        <mxCell id="cojn__nknI8n7a3oZvmY-44" value="" style="edgeStyle=orthogonalEdgeStyle;rounded=0;orthogonalLoop=1;jettySize=auto;html=1;strokeWidth=2;" edge="1" parent="1" source="cojn__nknI8n7a3oZvmY-41" target="cojn__nknI8n7a3oZvmY-43">
          <mxGeometry relative="1" as="geometry" />
        </mxCell>
        <mxCell id="cojn__nknI8n7a3oZvmY-41" value="Tampilkan Harga Akhir" style="shape=parallelogram;perimeter=parallelogramPerimeter;whiteSpace=wrap;html=1;fixedSize=1;" vertex="1" parent="1">
          <mxGeometry x="330" y="1250" width="120" height="60" as="geometry" />
        </mxCell>
        <mxCell id="cojn__nknI8n7a3oZvmY-43" value="End" style="strokeWidth=2;html=1;shape=mxgraph.flowchart.terminator;whiteSpace=wrap;" vertex="1" parent="1">
          <mxGeometry x="340" y="1350" width="100" height="60" as="geometry" />
        </mxCell>
      </root>
    </mxGraphModel>
  </diagram>
</mxfile>
